SerifasText-wght380.ufo
<glyph name="period" format="1">
  <advance width="160"/>
  <unicode hex="002E"/>
  <outline>
    <contour>
      <point x="27" y="-1" type="line"/>
      <point x="137" y="-1" type="line"/>
      <point x="137" y="109" type="line"/>
      <point x="27" y="109" type="line"/>
    </contour>
  </outline>
</glyph>
<glyph name="C" format="1">
  <advance width="708"/>
  <unicode hex="0043"/>
  <outline>
    <contour>
      <point x="658" y="94" type="line"/>
      <point x="597" y="19"/>
      <point x="514" y="-18"/>
      <point x="381" y="-18" type="curve" smooth="yes"/>
      <point x="159" y="-18"/>
      <point x="61" y="107"/>
      <point x="61" y="381" type="curve" smooth="yes"/>
      <point x="61" y="649"/>
      <point x="161" y="760"/>
      <point x="400" y="760" type="curve" smooth="yes"/>
      <point x="502" y="760"/>
      <point x="591" y="738"/>
      <point x="644" y="705" type="curve"/>
      <point x="618" y="464" type="line"/>
      <point x="573" y="464" type="line"/>
      <point x="536" y="700" type="line"/>
      <point x="603" y="622" type="line"/>
      <point x="546" y="657"/>
      <point x="474" y="677"/>
      <point x="391" y="677" type="curve" smooth="yes"/>
      <point x="256" y="677"/>
      <point x="157" y="592"/>
      <point x="156" y="431" type="curve" smooth="yes"/>
      <point x="153" y="166"/>
      <point x="217" y="65"/>
      <point x="381" y="65" type="curve" smooth="yes"/>
      <point x="491" y="65"/>
      <point x="551" y="103"/>
      <point x="597" y="161" type="curve"/>
    </contour>
  </outline>
</glyph>
<glyph name="D" format="1">
  <advance width="754"/>
  <unicode hex="0044"/>
  <outline>
    <contour>
      <point x="317" y="-1" type="line" smooth="yes"/>
      <point x="591" y="-2"/>
      <point x="697" y="104"/>
      <point x="697" y="370" type="curve" smooth="yes"/>
      <point x="697" y="638"/>
      <point x="595" y="740"/>
      <point x="327" y="740" type="curve" smooth="yes"/>
      <point x="53" y="740" type="line"/>
      <point x="53" y="662" type="line"/>
      <point x="190" y="662" type="line"/>
      <point x="127" y="698" type="line"/>
      <point x="127" y="63" type="line"/>
      <point x="161" y="88" type="line"/>
      <point x="53" y="62" type="line"/>
      <point x="53" y="0" type="line"/>
    </contour>
    <contour>
      <point x="256" y="663" type="line" smooth="yes"/>
      <point x="502" y="667"/>
      <point x="605" y="626"/>
      <point x="605" y="352" type="curve" smooth="yes"/>
      <point x="605" y="110"/>
      <point x="502" y="73"/>
      <point x="255" y="81" type="curve" smooth="yes"/>
      <point x="175" y="83" type="line"/>
      <point x="209" y="52" type="line"/>
      <point x="209" y="706" type="line"/>
      <point x="186" y="662" type="line"/>
    </contour>
  </outline>
</glyph>
<glyph name="E" format="1">
  <advance width="668"/>
  <unicode hex="0045"/>
  <outline>
    <contour>
      <point x="165" y="327" type="line"/>
      <point x="165" y="420" type="line"/>
      <point x="469" y="399" type="line"/>
      <point x="469" y="340" type="line"/>
    </contour>
    <contour>
      <point x="513" y="47" type="line"/>
      <point x="563" y="235" type="line"/>
      <point x="610" y="235" type="line"/>
      <point x="610" y="0" type="line"/>
      <point x="50" y="0" type="line"/>
      <point x="50" y="59" type="line"/>
      <point x="153" y="87" type="line"/>
      <point x="124" y="49" type="line"/>
      <point x="124" y="686" type="line"/>
      <point x="154" y="656" type="line"/>
      <point x="50" y="656" type="line"/>
      <point x="50" y="740" type="line"/>
      <point x="596" y="740" type="line"/>
      <point x="588" y="516" type="line"/>
      <point x="538" y="516" type="line"/>
      <point x="511" y="694" type="line"/>
      <point x="544" y="662" type="line"/>
      <point x="174" y="662" type="line"/>
      <point x="211" y="699" type="line"/>
      <point x="211" y="51" type="line"/>
      <point x="175" y="77" type="line"/>
      <point x="545" y="77" type="line"/>
    </contour>
  </outline>
</glyph>
<glyph name="F" format="1">
  <advance width="639"/>
  <unicode hex="0046"/>
  <outline>
    <contour>
      <point x="165" y="314" type="line"/>
      <point x="165" y="407" type="line"/>
      <point x="478" y="386" type="line"/>
      <point x="478" y="327" type="line"/>
    </contour>
    <contour>
      <point x="393" y="0" type="line"/>
      <point x="50" y="0" type="line"/>
      <point x="50" y="69" type="line"/>
      <point x="153" y="97" type="line"/>
      <point x="124" y="59" type="line"/>
      <point x="124" y="686" type="line"/>
      <point x="154" y="656" type="line"/>
      <point x="50" y="656" type="line"/>
      <point x="50" y="740" type="line"/>
      <point x="605" y="740" type="line"/>
      <point x="597" y="506" type="line"/>
      <point x="543" y="506" type="line"/>
      <point x="512" y="694" type="line"/>
      <point x="549" y="662" type="line"/>
      <point x="174" y="662" type="line"/>
      <point x="211" y="699" type="line"/>
      <point x="211" y="49" type="line"/>
      <point x="179" y="97" type="line"/>
      <point x="393" y="69" type="line"/>
    </contour>
  </outline>
</glyph>
<glyph name="G" format="1">
  <advance width="758"/>
  <unicode hex="0047"/>
  <outline>
    <contour>
      <point x="588" y="83" type="line"/>
      <point x="588" y="315" type="line"/>
      <point x="617" y="274" type="line"/>
      <point x="420" y="282" type="line"/>
      <point x="420" y="349" type="line"/>
      <point x="676" y="359" type="line"/>
      <point x="676" y="148" type="line"/>
      <point x="637" y="48"/>
      <point x="545" y="-18"/>
      <point x="384" y="-18" type="curve" smooth="yes"/>
      <point x="161" y="-18"/>
      <point x="63" y="107"/>
      <point x="63" y="381" type="curve" smooth="yes"/>
      <point x="63" y="651"/>
      <point x="163" y="760"/>
      <point x="403" y="760" type="curve"/>
      <point x="505" y="760"/>
      <point x="591" y="738"/>
      <point x="644" y="705" type="curve"/>
      <point x="618" y="505" type="line"/>
      <point x="574" y="505" type="line"/>
      <point x="526" y="696" type="line"/>
      <point x="581" y="620" type="line"/>
      <point x="526" y="661"/>
      <point x="473" y="676"/>
      <point x="392" y="676" type="curve" smooth="yes"/>
      <point x="245" y="676"/>
      <point x="162" y="585"/>
      <point x="159" y="427" type="curve" smooth="yes"/>
      <point x="155" y="144"/>
      <point x="244" y="62"/>
      <point x="384" y="62" type="curve" smooth="yes"/>
      <point x="478" y="62"/>
      <point x="558" y="103"/>
      <point x="596" y="176" type="curve"/>
    </contour>
  </outline>
</glyph>
<glyph name="H" format="1">
  <advance width="823"/>
  <unicode hex="0048"/>
  <outline>
    <contour>
      <point x="180" y="341" type="line"/>
      <point x="180" y="416" type="line"/>
      <point x="640" y="416" type="line"/>
      <point x="640" y="341" type="line"/>
    </contour>
    <contour>
      <point x="211" y="700" type="line"/>
      <point x="211" y="55" type="line"/>
      <point x="162" y="84" type="line"/>
      <point x="288" y="84" type="line"/>
      <point x="288" y="0" type="line"/>
      <point x="50" y="0" type="line"/>
      <point x="50" y="62" type="line"/>
      <point x="158" y="91" type="line"/>
      <point x="124" y="63" type="line"/>
      <point x="124" y="692" type="line"/>
      <point x="187" y="656" type="line"/>
      <point x="50" y="656" type="line"/>
      <point x="50" y="740" type="line"/>
      <point x="288" y="740" type="line"/>
      <point x="288" y="678" type="line"/>
      <point x="185" y="649" type="line"/>
    </contour>
    <contour>
      <point x="699" y="695" type="line"/>
      <point x="699" y="51" type="line"/>
      <point x="636" y="84" type="line"/>
      <point x="773" y="84" type="line"/>
      <point x="773" y="0" type="line"/>
      <point x="535" y="0" type="line"/>
      <point x="535" y="62" type="line"/>
      <point x="638" y="91" type="line"/>
      <point x="612" y="63" type="line"/>
      <point x="612" y="688" type="line"/>
      <point x="661" y="656" type="line"/>
      <point x="535" y="656" type="line"/>
      <point x="535" y="740" type="line"/>
      <point x="773" y="740" type="line"/>
      <point x="773" y="678" type="line"/>
      <point x="665" y="649" type="line"/>
    </contour>
  </outline>
</glyph>
<glyph name="I" format="1">
  <advance width="424"/>
  <unicode hex="0049"/>
  <outline>
    <contour>
      <point x="254" y="33" type="line"/>
      <point x="217" y="84" type="line"/>
      <point x="361" y="84" type="line"/>
      <point x="361" y="0" type="line"/>
      <point x="63" y="0" type="line"/>
      <point x="63" y="62" type="line"/>
      <point x="194" y="91" type="line"/>
      <point x="171" y="45" type="line"/>
      <point x="171" y="688" type="line"/>
      <point x="201" y="656" type="line"/>
      <point x="63" y="656" type="line"/>
      <point x="63" y="740" type="line"/>
      <point x="361" y="740" type="line"/>
      <point x="361" y="678" type="line"/>
      <point x="230" y="649" type="line"/>
      <point x="254" y="695" type="line"/>
    </contour>
  </outline>
</glyph>
<glyph name="L" format="1">
  <advance width="658"/>
  <unicode hex="004C"/>
  <outline>
    <contour>
      <point x="175" y="79" type="line"/>
      <point x="570" y="79" type="line"/>
      <point x="505" y="42" type="line"/>
      <point x="559" y="291" type="line"/>
      <point x="607" y="291" type="line"/>
      <point x="607" y="2" type="line"/>
      <point x="53" y="0" type="line"/>
      <point x="53" y="55" type="line"/>
      <point x="161" y="84" type="line"/>
      <point x="127" y="56" type="line"/>
      <point x="127" y="692" type="line"/>
      <point x="190" y="656" type="line"/>
      <point x="53" y="656" type="line"/>
      <point x="53" y="740" type="line"/>
      <point x="412" y="740" type="line"/>
      <point x="414" y="675" type="line"/>
      <point x="189" y="650" type="line"/>
      <point x="214" y="700" type="line"/>
      <point x="214" y="48" type="line"/>
    </contour>
  </outline>
</glyph>
<glyph name="N" format="1">
  <advance width="823"/>
  <unicode hex="004E"/>
  <outline>
    <contour>
      <point x="599" y="-1" type="line"/>
      <point x="192" y="662" type="line"/>
      <point x="204" y="687" type="line"/>
      <point x="204" y="55" type="line"/>
      <point x="169" y="84" type="line"/>
      <point x="319" y="84" type="line"/>
      <point x="319" y="0" type="line"/>
      <point x="50" y="0" type="line"/>
      <point x="50" y="62" type="line"/>
      <point x="158" y="91" type="line"/>
      <point x="124" y="63" type="line"/>
      <point x="124" y="692" type="line"/>
      <point x="181" y="656" type="line"/>
      <point x="50" y="656" type="line"/>
      <point x="50" y="740" type="line"/>
      <point x="253" y="740" type="line"/>
      <point x="629" y="127" type="line"/>
      <point x="618" y="125" type="line"/>
      <point x="617" y="688" type="line"/>
      <point x="648" y="656" type="line"/>
      <point x="534" y="656" type="line"/>
      <point x="534" y="740" type="line"/>
      <point x="803" y="740" type="line"/>
      <point x="803" y="678" type="line"/>
      <point x="657" y="649" type="line"/>
      <point x="691" y="695" type="line"/>
      <point x="691" y="0" type="line"/>
    </contour>
  </outline>
</glyph>
<glyph name="O" format="1">
  <advance width="758"/>
  <unicode hex="004F"/>
  <outline>
    <contour>
      <point x="374" y="-18" type="curve" smooth="yes"/>
      <point x="153" y="-18"/>
      <point x="56" y="105"/>
      <point x="56" y="375" type="curve" smooth="yes"/>
      <point x="56" y="650"/>
      <point x="157" y="759"/>
      <point x="384" y="759" type="curve" smooth="yes"/>
      <point x="606" y="759"/>
      <point x="703" y="634"/>
      <point x="703" y="364" type="curve" smooth="yes"/>
      <point x="703" y="89"/>
      <point x="602" y="-18"/>
    </contour>
    <contour>
      <point x="385" y="677" type="curve" smooth="yes"/>
      <point x="220" y="677"/>
      <point x="152" y="564"/>
      <point x="149" y="415" type="curve" smooth="yes"/>
      <point x="145" y="164"/>
      <point x="217" y="62"/>
      <point x="374" y="62" type="curve" smooth="yes"/>
      <point x="539" y="62"/>
      <point x="607" y="175"/>
      <point x="610" y="324" type="curve" smooth="yes"/>
      <point x="614" y="575"/>
      <point x="542" y="677"/>
    </contour>
  </outline>
</glyph>
<glyph name="P" format="1">
  <advance width="684"/>
  <unicode hex="0050"/>
  <outline>
    <contour>
      <point x="356" y="661" type="curve"/>
      <point x="190" y="661" type="line"/>
      <point x="210" y="700" type="line"/>
      <point x="210" y="55" type="line"/>
      <point x="167" y="84" type="line"/>
      <point x="367" y="84" type="line"/>
      <point x="367" y="0" type="line"/>
      <point x="50" y="0" type="line"/>
      <point x="50" y="62" type="line"/>
      <point x="158" y="91" type="line"/>
      <point x="124" y="63" type="line"/>
      <point x="124" y="692" type="line"/>
      <point x="187" y="656" type="line"/>
      <point x="50" y="656" type="line"/>
      <point x="50" y="740" type="line"/>
      <point x="332" y="740" type="line"/>
      <point x="549" y="740"/>
      <point x="634" y="682"/>
      <point x="634" y="502" type="curve" smooth="yes"/>
      <point x="634" y="312"/>
      <point x="561" y="248"/>
      <point x="312" y="248" type="curve" smooth="yes"/>
      <point x="186" y="248" type="line"/>
      <point x="186" y="327" type="line"/>
      <point x="329" y="327" type="line" smooth="yes"/>
      <point x="504" y="327"/>
      <point x="543" y="380"/>
      <point x="543" y="502" type="curve" smooth="yes"/>
      <point x="543" y="622"/>
      <point x="484" y="661"/>
    </contour>
  </outline>
</glyph>
<glyph name="Q" format="1">
  <advance width="758"/>
  <unicode hex="0051"/>
  <outline>
    <contour>
      <point x="600" y="121" type="line"/>
      <point x="793" y="-70" type="line"/>
      <point x="748" y="-113" type="line"/>
      <point x="472" y="61" type="line"/>
    </contour>
    <component base="O" xOffset="9" yOffset="3"/>
  </outline>
</glyph>
<glyph name="T" format="1">
  <advance width="756"/>
  <unicode hex="0054"/>
  <outline>
    <contour>
      <point x="661" y="657" type="line"/>
      <point x="624" y="687" type="line"/>
      <point x="640" y="445" type="line"/>
      <point x="706" y="445" type="line"/>
      <point x="719" y="740" type="line"/>
      <point x="37" y="740" type="line"/>
      <point x="50" y="445" type="line"/>
      <point x="116" y="445" type="line"/>
      <point x="132" y="687" type="line"/>
      <point x="95" y="657" type="line"/>
    </contour>
    <contour>
      <point x="330" y="690" type="line"/>
      <point x="330" y="50" type="line"/>
      <point x="360" y="94" type="line"/>
      <point x="187" y="59" type="line"/>
      <point x="187" y="1" type="line"/>
      <point x="569" y="1" type="line"/>
      <point x="569" y="59" type="line"/>
      <point x="390" y="94" type="line"/>
      <point x="419" y="50" type="line"/>
      <point x="419" y="690" type="line"/>
    </contour>
  </outline>
</glyph>
<glyph name="U" format="1">
  <advance width="816"/>
  <unicode hex="0055"/>
  <outline>
    <contour>
      <point x="617" y="76" type="line"/>
      <point x="632" y="138" type="line"/>
      <point x="607" y="152" type="line"/>
      <point x="555" y="96"/>
      <point x="463" y="75"/>
      <point x="376" y="75" type="curve"/>
      <point x="243" y="75"/>
      <point x="185" y="115"/>
      <point x="185" y="223" type="curve"/>
      <point x="185" y="685" type="line"/>
      <point x="156" y="647" type="line"/>
      <point x="268" y="678" type="line"/>
      <point x="268" y="740" type="line"/>
      <point x="23" y="740" type="line"/>
      <point x="23" y="656" type="line"/>
      <point x="127" y="656" type="line"/>
      <point x="97" y="686" type="line"/>
      <point x="97" y="229" type="line"/>
      <point x="97" y="86"/>
      <point x="177" y="-18"/>
      <point x="328" y="-18" type="curve" smooth="yes"/>
      <point x="481" y="-18"/>
      <point x="534" y="7"/>
      <point x="555" y="76" type="curve"/>
    </contour>
    <contour>
      <point x="739" y="84" type="line"/>
      <point x="631" y="84" type="line"/>
      <point x="661" y="54" type="line"/>
      <point x="659" y="688" type="line"/>
      <point x="635" y="650" type="line"/>
      <point x="739" y="678" type="line"/>
      <point x="739" y="740" type="line"/>
      <point x="489" y="740" type="line"/>
      <point x="489" y="656" type="line"/>
      <point x="602" y="656" type="line"/>
      <point x="572" y="686" type="line"/>
      <point x="572" y="0" type="line"/>
      <point x="739" y="0" type="line"/>
    </contour>
  </outline>
</glyph>
<glyph name="a" format="1">
  <advance width="579"/>
  <unicode hex="0061"/>
  <outline>
    <contour>
      <point x="112" y="163" type="curve" smooth="yes"/>
      <point x="112" y="244"/>
      <point x="157" y="267"/>
      <point x="248" y="267" type="curve" smooth="yes"/>
      <point x="335" y="267"/>
      <point x="396" y="197"/>
      <point x="396" y="197" type="curve"/>
      <point x="417" y="229" type="line"/>
      <point x="358" y="313"/>
      <point x="301" y="329"/>
      <point x="231" y="329" type="curve" smooth="yes"/>
      <point x="100" y="329"/>
      <point x="35" y="277"/>
      <point x="35" y="154" type="curve" smooth="yes"/>
      <point x="35" y="39"/>
      <point x="98" y="-18"/>
      <point x="208" y="-18" type="curve" smooth="yes"/>
      <point x="307" y="-18"/>
      <point x="362" y="22"/>
      <point x="362" y="99" type="curve"/>
      <point x="341" y="64" type="line"/>
      <point x="430" y="64" type="line"/>
      <point x="415" y="162" type="line"/>
      <point x="390" y="123"/>
      <point x="312" y="49"/>
      <point x="236" y="49" type="curve" smooth="yes"/>
      <point x="158" y="49"/>
      <point x="112" y="87"/>
    </contour>
    <contour>
      <point x="521" y="62" type="line"/>
      <point x="422" y="113" type="line"/>
      <point x="461" y="61" type="line"/>
      <point x="461" y="333" type="line" smooth="yes"/>
      <point x="461" y="488"/>
      <point x="418" y="558"/>
      <point x="284" y="558" type="curve" smooth="yes"/>
      <point x="241" y="558"/>
      <point x="169" y="551"/>
      <point x="63" y="516" type="curve"/>
      <point x="84" y="451" type="line"/>
      <point x="132" y="467"/>
      <point x="199" y="487"/>
      <point x="256" y="487" type="curve" smooth="yes"/>
      <point x="360" y="487"/>
      <point x="384" y="421"/>
      <point x="384" y="305" type="curve" smooth="yes"/>
      <point x="383" y="0" type="line"/>
      <point x="521" y="0" type="line"/>
    </contour>
  </outline>
</glyph>
<glyph name="b" format="1">
  <advance width="620"/>
  <unicode hex="0062"/>
  <outline>
    <contour>
      <point x="114" y="0" type="line"/>
      <point x="114" y="676" type="line"/>
      <point x="168" y="661" type="line"/>
      <point x="37" y="661" type="line"/>
      <point x="37" y="760" type="line"/>
      <point x="196" y="760" type="line"/>
      <point x="196" y="94" type="line"/>
      <point x="183" y="87" type="line"/>
      <point x="161" y="0" type="line"/>
    </contour>
    <contour>
      <point x="494" y="276" type="curve"/>
      <point x="494" y="404"/>
      <point x="452" y="465"/>
      <point x="369" y="465" type="curve" smooth="yes"/>
      <point x="276" y="465"/>
      <point x="236" y="433"/>
      <point x="165" y="394" type="curve"/>
      <point x="165" y="456" type="line"/>
      <point x="294" y="475" type="line"/>
      <point x="221" y="433" type="line"/>
      <point x="221" y="506"/>
      <point x="282" y="554"/>
      <point x="388" y="554" type="curve" smooth="yes"/>
      <point x="492" y="554"/>
      <point x="578" y="513"/>
      <point x="578" y="265" type="curve" smooth="yes"/>
      <point x="578" y="44"/>
      <point x="482" y="-11"/>
      <point x="355" y="-11" type="curve" smooth="yes"/>
      <point x="244" y="-11"/>
      <point x="157" y="70"/>
      <point x="146" y="142" type="curve"/>
      <point x="172" y="166" type="line"/>
      <point x="205" y="104"/>
      <point x="250" y="58"/>
      <point x="346" y="58" type="curve" smooth="yes"/>
      <point x="434" y="58"/>
      <point x="494" y="117"/>
    </contour>
  </outline>
</glyph>
<glyph name="c" format="1">
  <advance width="556"/>
  <unicode hex="0063"/>
  <outline>
    <contour>
      <point x="511" y="62" type="curve"/>
      <point x="475" y="121" type="line"/>
      <point x="437" y="92"/>
      <point x="379" y="53"/>
      <point x="293" y="53" type="curve" smooth="yes"/>
      <point x="179" y="53"/>
      <point x="138" y="150"/>
      <point x="138" y="284" type="curve" smooth="yes"/>
      <point x="138" y="425"/>
      <point x="191" y="489"/>
      <point x="296" y="489" type="curve" smooth="yes"/>
      <point x="376" y="489"/>
      <point x="399" y="466"/>
      <point x="414" y="449" type="curve" smooth="yes"/>
      <point x="429" y="430"/>
      <point x="433" y="375"/>
      <point x="430" y="330" type="curve"/>
      <point x="497" y="330" type="line"/>
      <point x="509" y="525"/>
      <point x="448" y="555"/>
      <point x="288" y="555" type="curve" smooth="yes"/>
      <point x="136" y="555"/>
      <point x="47" y="472"/>
      <point x="47" y="270" type="curve" smooth="yes"/>
      <point x="47" y="66"/>
      <point x="131" y="-11"/>
      <point x="285" y="-11" type="curve" smooth="yes"/>
      <point x="373" y="-11"/>
      <point x="438" y="7"/>
    </contour>
  </outline>
</glyph>
<glyph name="d" format="1">
  <advance width="647"/>
  <unicode hex="0064"/>
  <outline>
    <contour>
      <point x="304" y="760" type="line"/>
      <point x="501" y="760" type="line"/>
      <point x="501" y="62" type="line"/>
      <point x="446" y="92" type="line"/>
      <point x="558" y="62" type="line"/>
      <point x="558" y="0" type="line"/>
      <point x="421" y="0" type="line"/>
      <point x="421" y="697" type="line"/>
      <point x="449" y="658" type="line"/>
      <point x="304" y="697" type="line"/>
    </contour>
    <contour>
      <point x="246" y="-10" type="curve" smooth="yes"/>
      <point x="143" y="-10"/>
      <point x="46" y="28"/>
      <point x="46" y="284" type="curve"/>
      <point x="46" y="506"/>
      <point x="147" y="555"/>
      <point x="269" y="555" type="curve" smooth="yes"/>
      <point x="380" y="555"/>
      <point x="462" y="470"/>
      <point x="473" y="398" type="curve"/>
      <point x="437" y="384" type="line"/>
      <point x="423" y="438"/>
      <point x="364" y="482"/>
      <point x="273" y="482" type="curve" smooth="yes"/>
      <point x="189" y="482"/>
      <point x="131" y="418"/>
      <point x="131" y="310" type="curve" smooth="yes"/>
      <point x="131" y="136"/>
      <point x="162" y="73"/>
      <point x="268" y="73" type="curve" smooth="yes"/>
      <point x="368" y="73"/>
      <point x="444" y="144"/>
      <point x="473" y="185" type="curve"/>
      <point x="455" y="58" type="line"/>
      <point x="359" y="58" type="line"/>
      <point x="428" y="121" type="line"/>
      <point x="428" y="31"/>
      <point x="352" y="-10"/>
    </contour>
  </outline>
</glyph>
<glyph name="e" format="1">
  <advance width="556"/>
  <unicode hex="0065"/>
  <outline>
    <contour>
      <point x="425" y="301" type="curve"/>
      <point x="460" y="305" type="line"/>
      <point x="258" y="305" type="line" smooth="yes"/>
      <point x="174" y="305"/>
      <point x="156" y="306"/>
      <point x="156" y="265" type="curve"/>
      <point x="98" y="265" type="line"/>
      <point x="98" y="238" type="line"/>
      <point x="502" y="238" type="line"/>
      <point x="508" y="381"/>
      <point x="497" y="462"/>
      <point x="450" y="508" type="curve" smooth="yes"/>
      <point x="413" y="543"/>
      <point x="366" y="554"/>
      <point x="282" y="554" type="curve" smooth="yes"/>
      <point x="129" y="554"/>
      <point x="48" y="470"/>
      <point x="48" y="270" type="curve" smooth="yes"/>
      <point x="48" y="69"/>
      <point x="124" y="-11"/>
      <point x="284" y="-11" type="curve" smooth="yes"/>
      <point x="370" y="-11"/>
      <point x="431" y="7"/>
      <point x="502" y="61" type="curve"/>
      <point x="467" y="127" type="line"/>
      <point x="431" y="99"/>
      <point x="377" y="65"/>
      <point x="291" y="65" type="curve" smooth="yes"/>
      <point x="187" y="65"/>
      <point x="136" y="140"/>
      <point x="136" y="267" type="curve" smooth="yes"/>
      <point x="136" y="439"/>
      <point x="194" y="482"/>
      <point x="296" y="482" type="curve" smooth="yes"/>
      <point x="403" y="482"/>
      <point x="431" y="418"/>
    </contour>
  </outline>
</glyph>
<glyph name="h" format="1">
  <advance width="649"/>
  <unicode hex="0068"/>
  <outline>
    <contour>
      <point x="595" y="62" type="line"/>
      <point x="490" y="114" type="line"/>
      <point x="541" y="59" type="line"/>
      <point x="541" y="369" type="line" smooth="yes"/>
      <point x="541" y="509"/>
      <point x="488" y="555"/>
      <point x="377" y="555" type="curve" smooth="yes"/>
      <point x="280" y="555"/>
      <point x="221" y="521"/>
      <point x="215" y="437" type="curve"/>
      <point x="263" y="471" type="line"/>
      <point x="178" y="471" type="line"/>
      <point x="178" y="382" type="line"/>
      <point x="205" y="435"/>
      <point x="291" y="456"/>
      <point x="347" y="456" type="curve" smooth="yes"/>
      <point x="425" y="456"/>
      <point x="464" y="430"/>
      <point x="464" y="393" type="curve" smooth="yes"/>
      <point x="464" y="59" type="line"/>
      <point x="492" y="101" type="line"/>
      <point x="407" y="62" type="line"/>
      <point x="407" y="-1" type="line"/>
      <point x="595" y="-1" type="line"/>
    </contour>
    <contour>
      <point x="253" y="-1" type="line"/>
      <point x="253" y="62" type="line"/>
      <point x="168" y="104" type="line"/>
      <point x="196" y="62" type="line"/>
      <point x="196" y="759" type="line"/>
      <point x="59" y="760" type="line"/>
      <point x="59" y="666" type="line"/>
      <point x="171" y="666" type="line"/>
      <point x="119" y="695" type="line"/>
      <point x="119" y="69" type="line"/>
      <point x="134" y="95" type="line"/>
      <point x="59" y="62" type="line"/>
      <point x="59" y="-1" type="line"/>
    </contour>
  </outline>
</glyph>
<glyph name="i" format="1">
  <advance width="341"/>
  <unicode hex="0069"/>
  <outline>
    <contour>
      <point x="309" y="-1" type="line"/>
      <point x="309" y="62" type="line"/>
      <point x="206" y="97" type="line"/>
      <point x="234" y="62" type="line"/>
      <point x="234" y="539" type="line"/>
      <point x="82" y="539" type="line"/>
      <point x="82" y="445" type="line"/>
      <point x="209" y="445" type="line"/>
      <point x="157" y="474" type="line"/>
      <point x="157" y="69" type="line"/>
      <point x="172" y="88" type="line"/>
      <point x="79" y="62" type="line"/>
      <point x="79" y="-1" type="line"/>
    </contour>
    <contour>
      <point x="169" y="654" type="curve"/>
      <point x="211" y="653"/>
      <point x="240" y="678"/>
      <point x="240" y="728" type="curve" smooth="yes"/>
      <point x="240" y="781"/>
      <point x="211" y="803"/>
      <point x="169" y="803" type="curve"/>
      <point x="125" y="804"/>
      <point x="104" y="779"/>
      <point x="104" y="729" type="curve" smooth="yes"/>
      <point x="104" y="676"/>
      <point x="125" y="654"/>
    </contour>
  </outline>
</glyph>
<glyph name="l" format="1">
  <advance width="331"/>
  <unicode hex="006C"/>
  <outline>
    <contour>
      <point x="304" y="-1" type="line"/>
      <point x="304" y="62" type="line"/>
      <point x="201" y="97" type="line"/>
      <point x="229" y="62" type="line"/>
      <point x="229" y="760" type="line"/>
      <point x="77" y="760" type="line"/>
      <point x="77" y="661" type="line"/>
      <point x="204" y="661" type="line"/>
      <point x="152" y="695" type="line"/>
      <point x="152" y="69" type="line"/>
      <point x="167" y="88" type="line"/>
      <point x="74" y="62" type="line"/>
      <point x="74" y="-1" type="line"/>
    </contour>
  </outline>
</glyph>
<glyph name="m" format="1">
  <advance width="948"/>
  <unicode hex="006D"/>
  <outline>
    <contour>
      <point x="597" y="62" type="line"/>
      <point x="493" y="114" type="line"/>
      <point x="543" y="59" type="line"/>
      <point x="543" y="359" type="line"/>
      <point x="543" y="517"/>
      <point x="498" y="555"/>
      <point x="397" y="555" type="curve" smooth="yes"/>
      <point x="302" y="555"/>
      <point x="248" y="524"/>
      <point x="242" y="441" type="curve"/>
      <point x="258" y="477" type="line"/>
      <point x="195" y="477" type="line"/>
      <point x="195" y="386" type="line"/>
      <point x="222" y="439"/>
      <point x="298" y="457"/>
      <point x="354" y="457" type="curve" smooth="yes"/>
      <point x="432" y="457"/>
      <point x="466" y="431"/>
      <point x="466" y="388" type="curve" smooth="yes"/>
      <point x="466" y="59" type="line"/>
      <point x="494" y="101" type="line"/>
      <point x="409" y="62" type="line"/>
      <point x="409" y="-1" type="line"/>
      <point x="597" y="-1" type="line"/>
    </contour>
    <contour>
      <point x="281" y="-1" type="line"/>
      <point x="281" y="62" type="line"/>
      <point x="196" y="104" type="line"/>
      <point x="224" y="62" type="line"/>
      <point x="224" y="539" type="line"/>
      <point x="87" y="539" type="line"/>
      <point x="87" y="445" type="line"/>
      <point x="199" y="445" type="line"/>
      <point x="147" y="474" type="line"/>
      <point x="147" y="69" type="line"/>
      <point x="162" y="95" type="line"/>
      <point x="87" y="62" type="line"/>
      <point x="87" y="-1" type="line"/>
    </contour>
    <contour>
      <point x="916" y="62" type="line"/>
      <point x="815" y="112" type="line"/>
      <point x="862" y="59" type="line"/>
      <point x="862" y="359" type="line"/>
      <point x="862" y="507"/>
      <point x="813" y="555"/>
      <point x="709" y="555" type="curve" smooth="yes"/>
      <point x="613" y="555"/>
      <point x="562" y="524"/>
      <point x="556" y="441" type="curve"/>
      <point x="577" y="477" type="line"/>
      <point x="506" y="477" type="line"/>
      <point x="504" y="373" type="line"/>
      <point x="531" y="426"/>
      <point x="614" y="457"/>
      <point x="670" y="457" type="curve" smooth="yes"/>
      <point x="748" y="457"/>
      <point x="785" y="431"/>
      <point x="785" y="388" type="curve" smooth="yes"/>
      <point x="785" y="59" type="line"/>
      <point x="813" y="101" type="line"/>
      <point x="728" y="62" type="line"/>
      <point x="728" y="-1" type="line"/>
      <point x="916" y="-1" type="line"/>
    </contour>
  </outline>
</glyph>
<glyph name="n" format="1">
  <advance width="649"/>
  <unicode hex="006E"/>
  <outline>
    <contour>
      <point x="620" y="62" type="line"/>
      <point x="508" y="117" type="line"/>
      <point x="566" y="59" type="line"/>
      <point x="566" y="369" type="line"/>
      <point x="566" y="509"/>
      <point x="513" y="555"/>
      <point x="402" y="555" type="curve" smooth="yes"/>
      <point x="305" y="555"/>
      <point x="246" y="518"/>
      <point x="240" y="435" type="curve"/>
      <point x="275" y="471" type="line"/>
      <point x="204" y="471" type="line"/>
      <point x="204" y="382" type="line"/>
      <point x="231" y="435"/>
      <point x="309" y="457"/>
      <point x="365" y="457" type="curve" smooth="yes"/>
      <point x="443" y="457"/>
      <point x="482" y="433"/>
      <point x="482" y="393" type="curve" smooth="yes"/>
      <point x="482" y="59" type="line"/>
      <point x="510" y="101" type="line"/>
      <point x="425" y="62" type="line"/>
      <point x="425" y="-1" type="line"/>
      <point x="620" y="-1" type="line"/>
    </contour>
    <contour>
      <point x="278" y="-1" type="line"/>
      <point x="278" y="62" type="line"/>
      <point x="193" y="104" type="line"/>
      <point x="221" y="62" type="line"/>
      <point x="221" y="539" type="line"/>
      <point x="77" y="539" type="line"/>
      <point x="77" y="445" type="line"/>
      <point x="189" y="445" type="line"/>
      <point x="137" y="474" type="line"/>
      <point x="137" y="69" type="line"/>
      <point x="152" y="95" type="line"/>
      <point x="77" y="62" type="line"/>
      <point x="77" y="-1" type="line"/>
    </contour>
  </outline>
</glyph>
<glyph name="o" format="1">
  <advance width="596"/>
  <unicode hex="006F"/>
  <outline>
    <contour>
      <point x="298" y="-18" type="curve"/>
      <point x="469" y="-18"/>
      <point x="546" y="60"/>
      <point x="546" y="268" type="curve" smooth="yes"/>
      <point x="546" y="485"/>
      <point x="466" y="558"/>
      <point x="298" y="558" type="curve" smooth="yes"/>
      <point x="128" y="558"/>
      <point x="49" y="481"/>
      <point x="49" y="273" type="curve" smooth="yes"/>
      <point x="49" y="56"/>
      <point x="130" y="-18"/>
    </contour>
    <contour>
      <point x="143" y="306" type="curve" smooth="yes"/>
      <point x="143" y="413"/>
      <point x="178" y="480"/>
      <point x="306" y="480" type="curve" smooth="yes"/>
      <point x="432" y="480"/>
      <point x="452" y="420"/>
      <point x="452" y="234" type="curve" smooth="yes"/>
      <point x="452" y="132"/>
      <point x="427" y="60"/>
      <point x="290" y="60" type="curve" smooth="yes"/>
      <point x="165" y="60"/>
      <point x="143" y="120"/>
    </contour>
  </outline>
</glyph>
<glyph name="p" format="1">
  <advance width="647"/>
  <unicode hex="0070"/>
  <outline>
    <contour>
      <point x="374" y="-12" type="curve" smooth="yes"/>
      <point x="269" y="-12"/>
      <point x="197" y="64"/>
      <point x="189" y="130" type="curve"/>
      <point x="193" y="170" type="line"/>
      <point x="226" y="107"/>
      <point x="282" y="60"/>
      <point x="365" y="60" type="curve" smooth="yes"/>
      <point x="459" y="60"/>
      <point x="516" y="123"/>
      <point x="516" y="280" type="curve" smooth="yes"/>
      <point x="516" y="412"/>
      <point x="472" y="465"/>
      <point x="384" y="465" type="curve" smooth="yes"/>
      <point x="320" y="465"/>
      <point x="256" y="439"/>
      <point x="186" y="393" type="curve"/>
      <point x="210" y="478" type="line"/>
      <point x="281" y="477" type="line"/>
      <point x="243" y="458" type="line"/>
      <point x="243" y="523"/>
      <point x="326" y="555"/>
      <point x="413" y="555" type="curve" smooth="yes"/>
      <point x="531" y="555"/>
      <point x="599" y="479"/>
      <point x="599" y="278" type="curve" smooth="yes"/>
      <point x="599" y="16"/>
      <point x="484" y="-12"/>
    </contour>
    <contour>
      <point x="68" y="-210" type="line"/>
      <point x="68" y="-145" type="line"/>
      <point x="173" y="-125" type="line"/>
      <point x="143" y="-155" type="line"/>
      <point x="143" y="445" type="line"/>
      <point x="83" y="445" type="line"/>
      <point x="83" y="540" type="line"/>
      <point x="224" y="540" type="line"/>
      <point x="224" y="-150" type="line"/>
      <point x="191" y="-113" type="line"/>
      <point x="368" y="-156" type="line"/>
      <point x="368" y="-210" type="line"/>
    </contour>
  </outline>
</glyph>
<glyph name="q" format="1">
  <advance width="620"/>
  <unicode hex="0071"/>
  <outline>
    <contour>
      <point x="245" y="-11" type="curve" smooth="yes"/>
      <point x="142" y="-11"/>
      <point x="44" y="36"/>
      <point x="44" y="284" type="curve"/>
      <point x="44" y="508"/>
      <point x="139" y="554"/>
      <point x="265" y="554" type="curve" smooth="yes"/>
      <point x="376" y="554"/>
      <point x="460" y="465"/>
      <point x="471" y="393" type="curve"/>
      <point x="450" y="378" type="line"/>
      <point x="436" y="429"/>
      <point x="331" y="477"/>
      <point x="270" y="477" type="curve" smooth="yes"/>
      <point x="176" y="477"/>
      <point x="127" y="422"/>
      <point x="127" y="310" type="curve" smooth="yes"/>
      <point x="127" y="135"/>
      <point x="167" y="65"/>
      <point x="273" y="65" type="curve" smooth="yes"/>
      <point x="366" y="65"/>
      <point x="440" y="135"/>
      <point x="473" y="200" type="curve"/>
      <point x="465" y="53" type="line"/>
      <point x="318" y="53" type="line"/>
      <point x="407" y="95" type="line"/>
      <point x="407" y="31"/>
      <point x="351" y="-11"/>
    </contour>
    <contour>
      <point x="278" y="-210" type="line"/>
      <point x="278" y="-156" type="line"/>
      <point x="449" y="-114" type="line"/>
      <point x="421" y="-148" type="line"/>
      <point x="421" y="464" type="line"/>
      <point x="433" y="471" type="line"/>
      <point x="455" y="558" type="line"/>
      <point x="503" y="558" type="line"/>
      <point x="503" y="-150" type="line"/>
      <point x="473" y="-125" type="line"/>
      <point x="578" y="-145" type="line"/>
      <point x="578" y="-210" type="line"/>
    </contour>
  </outline>
</glyph>
<glyph name="r" format="1">
  <advance width="518"/>
  <unicode hex="0072"/>
  <outline>
    <contour>
      <point x="379" y="-1" type="line"/>
      <point x="379" y="63" type="line"/>
      <point x="193" y="95" type="line"/>
      <point x="241" y="62" type="line"/>
      <point x="241" y="539" type="line"/>
      <point x="84" y="539" type="line"/>
      <point x="84" y="445" type="line"/>
      <point x="196" y="445" type="line"/>
      <point x="162" y="474" type="line"/>
      <point x="162" y="69" type="line"/>
      <point x="193" y="90" type="line"/>
      <point x="84" y="62" type="line"/>
      <point x="84" y="-1" type="line"/>
    </contour>
    <contour>
      <point x="481" y="332" type="line"/>
      <point x="506" y="500"/>
      <point x="478" y="554"/>
      <point x="385" y="554" type="curve" smooth="yes"/>
      <point x="312" y="554"/>
      <point x="262" y="519"/>
      <point x="261" y="446" type="curve"/>
      <point x="293" y="471" type="line"/>
      <point x="223" y="471" type="line"/>
      <point x="218" y="395" type="line"/>
      <point x="248" y="433"/>
      <point x="302" y="452"/>
      <point x="344" y="452" type="curve" smooth="yes"/>
      <point x="409" y="452"/>
      <point x="414" y="389"/>
      <point x="420" y="331" type="curve"/>
    </contour>
  </outline>
</glyph>
<glyph name="u" format="1">
  <advance width="646"/>
  <unicode hex="0075"/>
  <outline>
    <contour>
      <point x="8" y="478" type="line"/>
      <point x="130" y="423" type="line"/>
      <point x="72" y="481" type="line"/>
      <point x="72" y="171" type="line"/>
      <point x="72" y="31"/>
      <point x="127" y="-15"/>
      <point x="238" y="-15" type="curve" smooth="yes"/>
      <point x="335" y="-15"/>
      <point x="393" y="19"/>
      <point x="399" y="107" type="curve"/>
      <point x="364" y="71" type="line"/>
      <point x="436" y="53" type="line"/>
      <point x="437" y="157" type="line"/>
      <point x="410" y="104"/>
      <point x="331" y="86"/>
      <point x="275" y="86" type="curve" smooth="yes"/>
      <point x="197" y="86"/>
      <point x="156" y="109"/>
      <point x="156" y="146" type="curve" smooth="yes"/>
      <point x="156" y="541" type="line"/>
      <point x="8" y="541" type="line"/>
    </contour>
    <contour>
      <point x="350" y="541" type="line"/>
      <point x="350" y="478" type="line"/>
      <point x="445" y="434" type="line"/>
      <point x="417" y="478" type="line"/>
      <point x="417" y="1" type="line"/>
      <point x="561" y="1" type="line"/>
      <point x="561" y="62" type="line"/>
      <point x="449" y="105" type="line"/>
      <point x="501" y="66" type="line"/>
      <point x="501" y="541" type="line"/>
    </contour>
  </outline>
</glyph>
<glyph name="Ntilde" format="1">
  <advance width="784"/>
  <unicode hex="00D1"/>
  <outline>
    <contour>
      <point x="245" y="832" type="curve"/>
      <point x="215" y="844" type="line"/>
      <point x="215" y="935"/>
      <point x="217" y="1018"/>
      <point x="335" y="1018" type="curve" smooth="yes"/>
      <point x="392" y="1018"/>
      <point x="423" y="1011"/>
      <point x="453" y="969" type="curve"/>
      <point x="472" y="939"/>
      <point x="482" y="933"/>
      <point x="518" y="933" type="curve" smooth="yes"/>
      <point x="570" y="926"/>
      <point x="584" y="957"/>
      <point x="595" y="985" type="curve"/>
      <point x="609" y="985"/>
      <point x="626" y="993"/>
      <point x="626" y="1014" type="curve"/>
      <point x="656" y="1009" type="line"/>
      <point x="656" y="916"/>
      <point x="652" y="825"/>
      <point x="534" y="825" type="curve" smooth="yes"/>
      <point x="477" y="825"/>
      <point x="450" y="836"/>
      <point x="418" y="880" type="curve"/>
      <point x="397" y="911"/>
      <point x="389" y="916"/>
      <point x="351" y="916" type="curve" smooth="yes"/>
      <point x="301" y="923"/>
      <point x="287" y="888"/>
      <point x="276" y="859" type="curve"/>
      <point x="261" y="859"/>
      <point x="245" y="853"/>
    </contour>
    <component base="N" xOffset="9"/>
  </outline>
</glyph>
<glyph name="ntilde" format="1">
  <advance width="656"/>
  <unicode hex="00F1"/>
  <outline>
    <contour>
      <point x="447" y="630" type="curve" smooth="yes"/>
      <point x="402" y="630"/>
      <point x="384" y="640"/>
      <point x="361" y="672" type="curve"/>
      <point x="350" y="689"/>
      <point x="342" y="697"/>
      <point x="319" y="697" type="curve" smooth="yes"/>
      <point x="284" y="703"/>
      <point x="273" y="681"/>
      <point x="262" y="662" type="curve"/>
      <point x="247" y="662"/>
      <point x="235" y="656"/>
      <point x="235" y="636" type="curve"/>
      <point x="207" y="644" type="line"/>
      <point x="207" y="719"/>
      <point x="211" y="779"/>
      <point x="300" y="779" type="curve" smooth="yes"/>
      <point x="345" y="779"/>
      <point x="367" y="773"/>
      <point x="387" y="742" type="curve"/>
      <point x="400" y="724"/>
      <point x="406" y="717"/>
      <point x="429" y="717" type="curve" smooth="yes"/>
      <point x="465" y="710"/>
      <point x="476" y="730"/>
      <point x="487" y="748" type="curve"/>
      <point x="501" y="748"/>
      <point x="512" y="755"/>
      <point x="512" y="776" type="curve"/>
      <point x="542" y="773" type="line"/>
      <point x="542" y="696"/>
      <point x="536" y="630"/>
    </contour>
    <component base="n" xOffset="30"/>
  </outline>
</glyph>
<glyph name="r.alt" format="1">
  <advance width="548"/>
  <outline>
    <contour>
      <point x="373" y="45" type="line"/>
      <point x="223" y="86" type="line"/>
      <point x="223" y="540" type="line"/>
      <point x="84" y="540" type="line"/>
      <point x="84" y="445" type="line"/>
      <point x="144" y="445" type="line"/>
      <point x="144" y="70" type="line"/>
      <point x="84" y="70" type="line"/>
      <point x="84" y="0" type="line"/>
      <point x="373" y="0" type="line"/>
    </contour>
    <contour>
      <point x="223" y="451" type="line"/>
      <point x="223" y="320" type="line"/>
      <point x="223" y="393"/>
      <point x="265" y="447"/>
      <point x="338" y="447" type="curve"/>
      <point x="401" y="447"/>
      <point x="474" y="409"/>
      <point x="474" y="409" type="curve"/>
      <point x="525" y="485" type="line"/>
      <point x="525" y="485"/>
      <point x="454" y="558"/>
      <point x="354" y="558" type="curve" smooth="yes"/>
      <point x="253" y="558"/>
      <point x="243" y="451"/>
      <point x="243" y="451" type="curve"/>
    </contour>
  </outline>
</glyph>
